<svg width="137" height="160" viewBox="0 0 137 160" fill="none" xmlns="http://www.w3.org/2000/svg">
<path d="M125.978 12.6504H62.1288C57.5294 12.6504 53.7656 16.4135 53.7656 21.0135V48.8904C53.7656 53.4904 57.5287 57.2535 62.1288 57.2535H65.0706C65.9956 57.2535 66.8344 57.7979 67.2119 58.6423L69.2794 63.2742C69.8819 64.6242 71.7981 64.6242 72.4006 63.2742L74.4681 58.6423C74.8456 57.7973 75.6844 57.2535 76.6094 57.2535H125.978C130.577 57.2535 134.341 53.4904 134.341 48.8904V21.0135C134.341 16.4135 130.578 12.6504 125.978 12.6504Z" fill="#525252"/>
<path d="M74.6774 90.459H10.828C6.2286 90.459 2.46484 94.2221 2.46484 98.8221V126.699C2.46484 131.299 6.22797 135.062 10.828 135.062H60.1961C61.1217 135.062 61.9605 135.607 62.3374 136.451L64.4049 141.083C65.0074 142.433 66.9236 142.433 67.5261 141.083L69.5936 136.451C69.9711 135.606 70.8099 135.062 71.7349 135.062H74.6768C79.2761 135.062 83.0399 131.299 83.0399 126.699V98.8221C83.0405 94.2221 79.2767 90.459 74.6774 90.459Z" fill="#F25118"/>
<path d="M50.0553 3.8811C48.0816 3.52985 46.5472 1.99484 46.1522 0.0660938C46.1522 -0.0220313 45.9766 -0.0220313 45.9766 0.0660938C45.5822 1.99547 44.0472 3.53047 42.0734 3.8811C41.9859 3.8811 41.9859 4.01235 42.0734 4.0561C44.0472 4.40735 45.5816 5.94235 45.9766 7.8711C45.9766 7.95922 46.1522 7.95922 46.1522 7.8711C46.5466 5.94172 48.0816 4.40672 50.0553 4.0561C50.1428 4.01235 50.1428 3.8811 50.0553 3.8811Z" fill="url(#paint0_linear_1136_7315)"/>
<path d="M82.75 72.9961H81.3125V71.5586C81.3125 70.4961 80.4375 69.5586 79.3125 69.5586C78.1875 69.5586 77.3125 70.4336 77.3125 71.5586V72.9961H75.875C74.8125 72.9961 73.875 73.8711 73.875 74.9961C73.875 76.1211 74.75 76.9961 75.875 76.9961H77.3125V78.4336C77.3125 79.4961 78.1875 80.4336 79.3125 80.4336C80.4375 80.4336 81.3125 79.5586 81.3125 78.4336V76.9961H82.75C83.8125 76.9961 84.75 76.1211 84.75 74.9961C84.75 73.8711 83.875 72.9961 82.75 72.9961Z" fill="#F25118"/>
<path d="M95.3984 79.1582C94.2247 79.1582 93.2734 80.1095 93.2734 81.2832C93.2734 82.4563 94.2247 83.4082 95.3984 83.4082C96.5722 83.4082 97.5234 82.457 97.5234 81.2832C97.5234 80.1101 96.5722 79.1582 95.3984 79.1582Z" fill="#171717"/>
<path d="M39.1484 144.092C37.9747 144.092 37.0234 145.043 37.0234 146.217C37.0234 147.391 37.9747 148.342 39.1484 148.342C40.3222 148.342 41.2734 147.391 41.2734 146.217C41.2734 145.043 40.3222 144.092 39.1484 144.092Z" fill="#D4D4D4"/>
<path d="M59.1523 154.215C56.3398 153.715 54.1523 151.527 53.5898 148.777C53.5898 148.652 53.3398 148.652 53.3398 148.777C52.7773 151.527 50.5898 153.715 47.7773 154.215C47.6523 154.277 47.6523 154.465 47.7773 154.465C50.5898 154.965 52.7773 157.152 53.3398 159.902C53.3398 160.027 53.5898 160.027 53.5898 159.902C54.1523 157.152 56.3398 154.965 59.1523 154.465C59.2773 154.465 59.2773 154.277 59.1523 154.215Z" fill="#171717"/>
<path d="M45.1264 62.705L38.3958 60.2163L37.4101 59.7306L31.7264 65.7919C31.2401 66.3106 30.4251 66.3369 29.907 65.8506L27.8639 63.935C27.3451 63.4488 27.3189 62.6338 27.8051 62.1156L32.8395 56.7469C32.3551 56.0031 32.0808 55.1225 32.0808 54.2V52C30.2139 52.9769 28.0964 53.5337 25.8532 53.5337C23.6107 53.5337 21.4926 52.9769 19.6264 52V54.2C19.6264 55.1225 19.3526 56.0025 18.8676 56.7469L23.902 62.1156C24.3882 62.6344 24.362 63.4488 23.8432 63.935L21.8001 65.8506C21.2814 66.3369 20.467 66.3106 19.9807 65.7925L14.2964 59.7312L13.3107 60.2169L6.51887 61.9931C3.71761 62.7256 1.75199 65.2406 1.71699 68.1363L1.55886 78.3113C1.53949 79.5825 2.56449 80.6238 3.83574 80.6238H47.0476C48.3051 80.6238 49.3245 79.6044 49.3245 78.3469V68.7356C49.3258 66.0444 47.6501 63.6381 45.1264 62.705Z" fill="url(#paint1_linear_1136_7315)"/>
<path d="M45.6711 61.2379L39.0161 58.7779L38.1036 58.3279C37.3293 57.9454 36.393 58.2641 36.0111 59.0385C35.6293 59.8129 35.9474 60.7491 36.7218 61.131L37.7074 61.6166C37.7561 61.6404 37.8055 61.6616 37.8561 61.681L44.5868 64.1691C46.488 64.8722 47.7655 66.7066 47.7655 68.7335V78.3454C47.7655 78.7391 47.4449 79.0598 47.0511 79.0598H3.83986C3.57924 79.0598 3.40924 78.926 3.33049 78.846C3.25236 78.7666 3.12174 78.5948 3.12611 78.3348L3.28424 68.1535C3.30986 65.9691 4.80486 64.0566 6.91861 63.5041L13.7105 61.7279C13.8124 61.701 13.9111 61.6641 14.0061 61.6172L14.9917 61.1316C15.7655 60.7504 16.0836 59.8135 15.7024 59.0391C15.3217 58.2654 14.3842 57.946 13.6099 58.3285L12.7661 58.7441L6.12736 60.4791C2.65549 61.3879 0.201736 64.5285 0.158611 68.1097L0.000485839 78.2841C-0.0157642 79.3204 0.376111 80.2985 1.10299 81.0372C1.83049 81.7766 2.80299 82.1835 3.83986 82.1835H47.0518C49.1686 82.1835 50.8911 80.461 50.8911 78.3441V68.7322C50.8905 65.4041 48.793 62.3922 45.6711 61.2379Z" fill="black"/>
<path d="M37.4417 23.8566C36.558 22.9297 35.1211 22.8441 34.1136 23.6353C32.5205 24.8853 29.7642 26.4316 25.8711 26.4316C21.9686 26.4316 19.1973 24.8784 17.598 23.6266C16.5911 22.8391 15.1573 22.9272 14.2748 23.8522L14.2705 23.8566C13.0311 25.1566 12.3398 26.8834 12.3398 28.6797V40.0234C12.3398 47.4578 18.4223 53.5403 25.8567 53.5403C33.2911 53.5403 39.3736 47.4578 39.3736 40.0234V28.6797C39.3724 26.8834 38.6811 25.1566 37.4417 23.8566Z" fill="#E5E5E5"/>
<path d="M40.2411 29.7168C39.9455 29.7168 39.6567 29.7418 39.3736 29.7855V40.0187C39.3736 40.3231 39.3598 40.6249 39.3398 40.9249C39.6342 40.9724 39.9336 41.0037 40.2411 41.0037C43.358 41.0037 45.8842 38.4768 45.8842 35.3605C45.8842 32.2437 43.358 29.7168 40.2411 29.7168Z" fill="#E5E5E5"/>
<path d="M12.3348 40.0187V29.7855C12.0517 29.7418 11.763 29.7168 11.4673 29.7168C8.35047 29.7168 5.82422 32.2437 5.82422 35.3605C5.82422 38.4768 8.35109 41.0037 11.4673 41.0037C11.7748 41.0037 12.0742 40.9724 12.3686 40.9249C12.3492 40.6249 12.3348 40.3237 12.3348 40.0187Z" fill="#E5E5E5"/>
<path d="M39.3247 18.184C38.8722 18.184 38.4797 17.8347 38.4735 17.3822C38.3697 9.85028 29.7691 8.4359 21.2034 9.91465C13.9409 11.1684 8.63281 17.4659 8.63281 24.8353V30.4865C9.46781 29.9984 10.4366 29.714 11.4734 29.714C11.7684 29.714 12.0578 29.739 12.3409 29.7828V28.6715C12.3409 26.8753 13.0322 25.1484 14.2716 23.8484L14.2759 23.844C15.1578 22.919 16.5922 22.8303 17.5991 23.6184C19.1991 24.8703 21.9697 26.4234 25.8722 26.4234C29.7653 26.4234 32.5216 24.8778 34.1147 23.6272C35.1222 22.8359 36.5591 22.9215 37.4428 23.8484C38.6822 25.1484 39.3741 26.8753 39.3741 28.6715V29.7828C39.6572 29.739 39.946 29.714 40.2416 29.714C41.291 29.714 42.2703 30.0059 43.1122 30.5053V25.8653C43.1128 19.1203 40.6772 18.184 39.3247 18.184Z" fill="#525252"/>
<path d="M23.9058 62.1188L18.8714 56.75C18.422 57.44 17.7927 58.0131 17.0252 58.3913L14.3008 59.7344L19.9845 65.7956C20.4708 66.3144 21.2852 66.3406 21.8039 65.8544L23.847 63.9388C24.3658 63.4519 24.3914 62.6369 23.9058 62.1188Z" fill="url(#paint2_linear_1136_7315)"/>
<path d="M34.6858 58.3834C33.919 58.0053 33.289 57.4322 32.8396 56.7422L27.8052 62.1109C27.319 62.6297 27.3452 63.4441 27.864 63.9303L29.9071 65.8459C30.4258 66.3322 31.2402 66.3059 31.7265 65.7872L37.4102 59.7259L34.6858 58.3834Z" fill="url(#paint3_linear_1136_7315)"/>
<path d="M32.0881 54.2V52C30.2213 52.9769 28.1038 53.5337 25.8606 53.5337C23.6181 53.5337 21.5 52.9769 19.6338 52V54.2C19.6338 55.1231 19.36 56.0025 18.875 56.7469L23.9094 62.1156C24.08 62.2981 24.1844 62.5175 24.2294 62.7456H27.4913C27.5363 62.5175 27.6406 62.2981 27.8113 62.1156L32.8456 56.7469C32.3619 56.0025 32.0881 55.1225 32.0881 54.2Z" fill="#E5E5E5"/>
<path d="M38.5808 22.7695C37.142 21.2608 34.8114 21.1002 33.157 22.397C31.7264 23.5208 29.302 24.8595 25.8789 24.8595C22.4489 24.8595 20.0102 23.5145 18.5689 22.3864C16.9177 21.0933 14.5889 21.2564 13.1477 22.7689C11.6239 24.3658 10.7852 26.4614 10.7852 28.6702V40.0139C10.7852 48.3289 17.5495 55.0933 25.8645 55.0933C34.1795 55.0933 40.9439 48.3289 40.9439 40.0139V28.6702C40.9445 26.4627 40.1052 24.3664 38.5808 22.7695ZM37.8195 40.0146C37.8195 46.6064 32.457 51.9689 25.8652 51.9689C19.2733 51.9689 13.9108 46.6064 13.9108 40.0146V28.6708C13.9108 27.2695 14.4433 25.9395 15.4145 24.9208C15.5889 24.7377 15.8233 24.6452 16.0627 24.6452C16.2645 24.6452 16.4695 24.7114 16.6433 24.8477C18.4727 26.2789 21.5595 27.9852 25.8795 27.9852C30.1945 27.9852 33.2683 26.2833 35.087 24.8552C35.467 24.5558 35.997 24.5877 36.3195 24.9264C37.2864 25.9395 37.8189 27.2695 37.8189 28.6708L37.8195 40.0146Z" fill="black"/>
<path d="M40.2409 28.1582C40.0509 28.1582 39.8634 28.1663 39.6771 28.1807C38.8171 28.2495 38.1759 29.0026 38.2446 29.8632C38.314 30.7232 39.0652 31.3645 39.9271 31.2957C40.0302 31.287 40.1352 31.2826 40.2409 31.2826C42.4915 31.2826 44.3215 33.1132 44.3215 35.3632C44.3215 37.6132 42.4909 39.4438 40.2409 39.4438C40.1352 39.4438 40.0302 39.4382 39.9271 39.4288C39.0634 39.3438 38.3046 39.9757 38.2221 40.8345C38.1396 41.6938 38.769 42.457 39.6277 42.5395C39.8296 42.5588 40.0334 42.5695 40.2402 42.5695C44.2134 42.5695 47.4459 39.337 47.4459 35.3638C47.4459 31.3907 44.2146 28.1582 40.2409 28.1582Z" fill="black"/>
<path d="M13.6213 40.787C13.5206 39.9301 12.745 39.3188 11.8869 39.4188C11.75 39.4345 11.6125 39.4445 11.4713 39.4445C9.22063 39.4445 7.39063 37.6138 7.39063 35.3638C7.39063 33.1138 9.22125 31.2832 11.4713 31.2832C11.6163 31.2832 11.76 31.292 11.9013 31.307C12.7594 31.4007 13.5294 30.7795 13.6238 29.9226C13.7169 29.0645 13.0969 28.2938 12.2394 28.2001C11.9875 28.1726 11.7313 28.1582 11.4713 28.1582C7.49812 28.1582 4.26562 31.3907 4.26562 35.3638C4.26562 39.337 7.49812 42.5695 11.4713 42.5695C11.7269 42.5695 11.9825 42.5545 12.2531 42.522C13.1094 42.4207 13.7225 41.6438 13.6213 40.787Z" fill="black"/>
<path d="M40.0014 16.6765C39.8145 14.2084 38.8027 12.1959 36.987 10.6884C32.5827 7.03023 25.0395 7.67335 20.9333 8.3821C12.8983 9.7696 7.06641 16.6921 7.06641 24.8427V30.1859C7.06641 31.049 7.76578 31.7484 8.62891 31.7484C9.49203 31.7484 10.1914 31.049 10.1914 30.1859V24.8427C10.1914 18.2171 14.9327 12.5896 21.4652 11.4615C27.4589 10.4265 32.5145 11.0365 34.9902 13.0921C36.2539 14.1421 36.8808 15.554 36.9064 17.4102C36.9239 18.7021 38.007 19.7534 39.3202 19.7534C40.6933 19.7534 41.5464 22.0977 41.5464 25.8715V29.9977C41.5464 30.8609 42.2458 31.5602 43.1089 31.5602C43.972 31.5602 44.6714 30.8609 44.6714 29.9977V25.8715C44.6714 18.6877 41.9964 16.9627 40.0014 16.6765Z" fill="black"/>
<path d="M25.0415 61.0448L20.0065 55.676C19.6784 55.3254 19.2078 55.1429 18.7296 55.1885C18.2515 55.2304 17.8196 55.4898 17.5578 55.8923C17.2521 56.3617 16.8271 56.7392 16.3303 56.9848L13.6059 58.3279C13.1621 58.5473 12.8478 58.9635 12.7596 59.4498C12.6709 59.9367 12.819 60.4373 13.1578 60.7979L18.8421 66.8585C19.3621 67.4142 20.0678 67.7329 20.829 67.7573C20.8603 67.7586 20.8921 67.7592 20.9228 67.7592C21.649 67.7592 22.3378 67.4867 22.8696 66.9879L24.9128 65.0723C26.0584 63.9979 26.1165 62.1911 25.0415 61.0448ZM20.9328 64.5204L16.879 60.1979L17.7128 59.7873C18.129 59.5823 18.5196 59.331 18.8778 59.0404L22.574 62.9817L20.9328 64.5204Z" fill="black"/>
<path d="M38.954 59.4514C38.8652 58.9652 38.5509 58.5489 38.1077 58.3296L35.384 56.9864C34.8865 56.7408 34.4615 56.3633 34.1559 55.8939C33.894 55.4914 33.4621 55.2321 32.984 55.1902C32.5096 55.1458 32.0352 55.3277 31.7071 55.6777L26.6721 61.0464C25.5971 62.1927 25.6552 64.0002 26.8015 65.0746L28.8452 66.9902C29.3777 67.4889 30.0652 67.7608 30.7915 67.7608C30.8234 67.7608 30.8546 67.7602 30.8852 67.7589C31.6465 67.7346 32.3521 67.4152 32.8727 66.8602L38.5565 60.7996C38.8946 60.4389 39.0427 59.9383 38.954 59.4514ZM30.7815 64.5221L29.1396 62.9827L32.8359 59.0414C33.194 59.3321 33.5846 59.5827 34.0009 59.7883L34.8346 60.1996L30.7815 64.5221Z" fill="black"/>
<path d="M19.6303 50.7832C18.7672 50.7832 18.0678 51.4826 18.0678 52.3457V54.202C18.0678 54.8026 17.8928 55.3882 17.5616 55.897C17.0909 56.6201 17.2959 57.5876 18.0191 58.0588C18.2822 58.2295 18.5778 58.3113 18.8697 58.3113C19.3803 58.3113 19.8809 58.0613 20.1809 57.6007C20.8428 56.5838 21.1922 55.4088 21.1922 54.202V52.3457C21.1928 51.4826 20.4934 50.7832 19.6303 50.7832Z" fill="black"/>
<path d="M34.1547 55.897C33.8241 55.3888 33.6484 54.8026 33.6484 54.202V52.3457C33.6484 51.4826 32.9491 50.7832 32.0859 50.7832C31.2228 50.7832 30.5234 51.4826 30.5234 52.3457V54.202C30.5234 55.4095 30.8734 56.5845 31.5347 57.6007C31.8341 58.0607 32.3347 58.3113 32.8459 58.3113C33.1384 58.3113 33.4334 58.2295 33.6966 58.0588C34.4203 57.5876 34.6253 56.6201 34.1547 55.897Z" fill="black"/>
<path d="M27.1995 61.1836H24.5039C23.6408 61.1836 22.9414 61.883 22.9414 62.7461C22.9414 63.6092 23.6408 64.3086 24.5039 64.3086H27.1995C28.0627 64.3086 28.762 63.6092 28.762 62.7461C28.762 61.883 28.0627 61.1836 27.1995 61.1836Z" fill="black"/>
<path d="M125.974 11.082H62.1248C56.6517 11.082 52.1992 15.5352 52.1992 21.0083V48.8852C52.1992 54.3583 56.6517 58.8108 62.1248 58.8108H65.0667C65.3755 58.8108 65.6555 58.9927 65.7817 59.2739L67.8499 63.9064C68.3836 65.1014 69.5286 65.8439 70.8367 65.8439C72.1461 65.8439 73.2911 65.1014 73.8242 63.9064L75.8924 59.2746C76.018 58.9927 76.298 58.8108 76.6067 58.8108H125.975C131.448 58.8108 135.901 54.3583 135.901 48.8852V21.0083C135.9 15.5352 131.447 11.082 125.974 11.082ZM132.775 48.8852C132.775 52.6352 129.724 55.6858 125.974 55.6858H76.6061C75.0667 55.6858 73.6661 56.5946 73.038 58.0002L70.9699 62.6321C70.9549 62.6671 70.9311 62.7189 70.8361 62.7189C70.7411 62.7189 70.7167 62.6646 70.7024 62.6327L68.6349 58.0002C68.0067 56.5946 66.6061 55.6858 65.0661 55.6858H62.1242C58.3742 55.6858 55.3236 52.6352 55.3236 48.8852V21.0083C55.3236 17.2583 58.3742 14.207 62.1242 14.207H125.974C129.724 14.207 132.774 17.2583 132.774 21.0083V48.8852H132.775Z" fill="black"/>
<path d="M123.458 45.5508H87.5703C86.7072 45.5508 86.0078 46.2502 86.0078 47.1133C86.0078 47.9764 86.7072 48.6758 87.5703 48.6758H123.458C124.321 48.6758 125.02 47.9764 125.02 47.1133C125.02 46.2502 124.321 45.5508 123.458 45.5508Z" fill="black"/>
<path d="M123.458 39.2324H87.5703C86.7072 39.2324 86.0078 39.9318 86.0078 40.7949C86.0078 41.6581 86.7072 42.3574 87.5703 42.3574H123.458C124.321 42.3574 125.02 41.6581 125.02 40.7949C125.02 39.9318 124.321 39.2324 123.458 39.2324Z" fill="black"/>
<path d="M123.458 32.916H87.5703C86.7072 32.916 86.0078 33.6154 86.0078 34.4785C86.0078 35.3416 86.7072 36.041 87.5703 36.041H123.458C124.321 36.041 125.02 35.3416 125.02 34.4785C125.02 33.6154 124.321 32.916 123.458 32.916Z" fill="black"/>
<path d="M109.34 22.5H87.5703C86.7072 22.5 86.0078 23.1994 86.0078 24.0625C86.0078 24.9256 86.7072 25.625 87.5703 25.625H109.34C110.203 25.625 110.903 24.9256 110.903 24.0625C110.903 23.1994 110.203 22.5 109.34 22.5Z" fill="black"/>
<path d="M72.9886 21.9004H69.2698C65.8455 21.9004 63.0586 24.6866 63.0586 28.1116V42.9885C63.0586 46.4129 65.8448 49.1998 69.2698 49.1998H72.9886C76.4136 49.1998 79.1999 46.4135 79.1999 42.9885V28.1116C79.1999 24.6866 76.4136 21.9004 72.9886 21.9004ZM76.0748 42.9879C76.0748 44.6898 74.6899 46.0742 72.9886 46.0742H69.2698C67.568 46.0742 66.1836 44.6898 66.1836 42.9879V28.1116C66.1836 26.4098 67.568 25.0254 69.2698 25.0254H72.9886C74.6905 25.0254 76.0748 26.4098 76.0748 28.1116V42.9879Z" fill="black"/>
<path d="M79.6671 46.5263L75.9484 42.8076C75.3377 42.197 74.349 42.197 73.739 42.8076C73.129 43.4182 73.1284 44.407 73.739 45.017L77.4577 48.7357C77.7627 49.0407 78.1627 49.1932 78.5627 49.1932C78.9627 49.1932 79.3621 49.0407 79.6677 48.7357C80.2777 48.1257 80.2777 47.137 79.6671 46.5263Z" fill="black"/>
<path d="M131.045 140.521L124.314 138.033L123.329 137.547L117.645 143.608C117.159 144.127 116.344 144.153 115.825 143.667L113.782 141.751C113.263 141.265 113.237 140.45 113.723 139.932L118.757 134.563C118.273 133.82 117.999 132.939 117.999 132.016V129.816C116.132 130.793 114.014 131.35 111.772 131.35C109.529 131.35 107.411 130.793 105.544 129.816V132.016C105.544 132.939 105.271 133.819 104.786 134.563L109.82 139.932C110.306 140.451 110.28 141.265 109.761 141.751L107.718 143.667C107.199 144.153 106.385 144.127 105.899 143.609L100.214 137.548L99.2287 138.033L92.4369 139.81C89.6356 140.542 87.67 143.057 87.635 145.953L87.4769 156.128C87.4569 157.399 88.4819 158.44 89.7537 158.44H132.967C134.225 158.44 135.244 157.421 135.244 156.163V146.552C135.244 143.861 133.569 141.455 131.045 140.521Z" fill="url(#paint4_linear_1136_7315)"/>
<path d="M131.59 139.055L124.935 136.594L124.022 136.144C123.248 135.762 122.311 136.081 121.93 136.855C121.548 137.629 121.866 138.566 122.64 138.947L123.626 139.433C123.675 139.457 123.724 139.478 123.775 139.497L130.506 141.986C132.407 142.689 133.685 144.523 133.685 146.55V156.162C133.685 156.556 133.364 156.876 132.97 156.876H89.7578C89.4978 156.876 89.3278 156.742 89.249 156.663C89.1709 156.583 89.0397 156.411 89.044 156.151L89.2022 145.971C89.2284 143.786 90.7234 141.873 92.8365 141.321L99.6284 139.544C99.7303 139.517 99.829 139.481 99.924 139.434L100.91 138.948C101.683 138.567 102.002 137.63 101.62 136.856C101.24 136.082 100.302 135.762 99.5278 136.145L98.684 136.561L92.0453 138.296C88.574 139.204 86.1203 142.345 86.0765 145.927L85.9184 156.102C85.9028 157.139 86.2947 158.117 87.0222 158.855C87.7497 159.593 88.7215 160.001 89.7578 160.001H132.97C135.087 160.001 136.81 158.278 136.81 156.161V146.549C136.809 143.222 134.712 140.21 131.59 139.055Z" fill="black"/>
<path d="M123.36 101.665C122.477 100.738 121.039 100.653 120.032 101.444C118.439 102.694 115.683 104.24 111.79 104.24C107.887 104.24 105.116 102.687 103.517 101.435C102.51 100.648 101.076 100.736 100.193 101.661L100.189 101.665C98.9497 102.965 98.2578 104.692 98.2578 106.488V117.832C98.2578 125.266 104.34 131.349 111.775 131.349C119.209 131.349 125.292 125.266 125.292 117.832V106.488C125.291 104.692 124.6 102.965 123.36 101.665Z" fill="#E5E5E5"/>
<path d="M126.151 107.525C125.856 107.525 125.567 107.55 125.284 107.594V117.827C125.284 118.132 125.27 118.434 125.25 118.734C125.544 118.781 125.844 118.812 126.151 118.812C129.268 118.812 131.794 116.285 131.794 113.169C131.794 110.052 129.268 107.525 126.151 107.525Z" fill="#E5E5E5"/>
<path d="M98.2528 117.827V107.594C97.9697 107.55 97.6809 107.525 97.3853 107.525C94.2684 107.525 91.7422 110.052 91.7422 113.169C91.7422 116.285 94.2691 118.812 97.3853 118.812C97.6928 118.812 97.9928 118.781 98.2866 118.734C98.2672 118.434 98.2528 118.132 98.2528 117.827Z" fill="#E5E5E5"/>
<path d="M125.242 96.0004C124.79 96.0004 124.397 95.6511 124.391 95.1986C124.287 87.6667 115.686 86.2523 107.121 87.7311C99.8589 88.9854 94.5508 95.2829 94.5508 102.652V108.304C95.3858 107.815 96.3545 107.531 97.3914 107.531C97.6864 107.531 97.9758 107.556 98.2589 107.6V106.489C98.2589 104.692 98.9502 102.965 100.19 101.665L100.195 101.661C101.076 100.736 102.511 100.647 103.518 101.435C105.118 102.687 107.888 104.24 111.791 104.24C115.684 104.24 118.44 102.695 120.033 101.444C121.041 100.653 122.478 100.739 123.361 101.665C124.601 102.965 125.293 104.692 125.293 106.489V107.6C125.576 107.556 125.865 107.531 126.16 107.531C127.21 107.531 128.189 107.823 129.031 108.322V103.682C129.03 96.9367 126.595 96.0004 125.242 96.0004Z" fill="#525252"/>
<path d="M109.82 139.927L104.785 134.559C104.336 135.249 103.707 135.822 102.939 136.2L100.215 137.543L105.899 143.604C106.385 144.123 107.199 144.149 107.718 143.663L109.761 141.747C110.28 141.26 110.306 140.445 109.82 139.927Z" fill="url(#paint5_linear_1136_7315)"/>
<path d="M120.604 136.2C119.837 135.822 119.207 135.249 118.758 134.559L113.723 139.927C113.237 140.446 113.263 141.26 113.782 141.747L115.825 143.662C116.344 144.149 117.158 144.122 117.644 143.604L123.328 137.542L120.604 136.2Z" fill="url(#paint6_linear_1136_7315)"/>
<path d="M117.994 132.009V129.809C116.128 130.785 114.01 131.342 111.768 131.342C109.525 131.342 107.407 130.785 105.54 129.809V132.009C105.54 132.932 105.266 133.811 104.781 134.555L109.816 139.924C109.986 140.107 110.091 140.326 110.136 140.554H113.398C113.443 140.326 113.547 140.107 113.718 139.924L118.752 134.555C118.268 133.811 117.994 132.931 117.994 132.009Z" fill="#E5E5E5"/>
<path d="M124.487 100.587C123.048 99.0782 120.718 98.9176 119.063 100.214C117.633 101.338 115.208 102.677 111.785 102.677C108.355 102.677 105.916 101.332 104.475 100.204C102.825 98.9126 100.496 99.0744 99.0533 100.586C97.5295 102.184 96.6914 104.28 96.6914 106.488V117.831C96.6914 126.146 103.456 132.911 111.771 132.911C120.086 132.911 126.85 126.146 126.85 117.831V106.488C126.851 104.28 126.011 102.184 124.487 100.587ZM123.726 117.832C123.726 124.424 118.363 129.786 111.771 129.786C105.18 129.786 99.817 124.424 99.817 117.832V106.488C99.817 105.087 100.35 103.757 101.321 102.738C101.495 102.555 101.73 102.463 101.969 102.463C102.171 102.463 102.376 102.529 102.55 102.665C104.379 104.096 107.466 105.803 111.786 105.803C116.101 105.803 119.175 104.101 120.993 102.673C121.373 102.373 121.903 102.405 122.226 102.744H122.226C123.193 103.757 123.725 105.087 123.725 106.488V117.832H123.726Z" fill="black"/>
<path d="M126.158 105.967C125.968 105.967 125.781 105.975 125.595 105.989C124.735 106.058 124.094 106.811 124.163 107.672C124.231 108.532 124.991 109.167 125.845 109.104C125.948 109.096 126.053 109.091 126.158 109.091C128.409 109.091 130.239 110.922 130.239 113.172C130.239 115.422 128.408 117.252 126.158 117.252C126.053 117.252 125.948 117.247 125.846 117.237C124.975 117.154 124.223 117.784 124.14 118.642C124.057 119.502 124.686 120.266 125.545 120.348C125.746 120.367 125.951 120.378 126.158 120.378C130.131 120.378 133.363 117.146 133.363 113.172C133.363 109.199 130.132 105.967 126.158 105.967Z" fill="black"/>
<path d="M99.5386 118.596C99.4373 117.739 98.658 117.125 97.8042 117.227C97.668 117.243 97.5298 117.253 97.3892 117.253C95.1386 117.253 93.3086 115.422 93.3086 113.172C93.3086 110.922 95.1392 109.092 97.3892 109.092C97.5342 109.092 97.6773 109.101 97.8186 109.116C98.6817 109.201 99.4467 108.588 99.5411 107.731C99.6342 106.873 99.0142 106.102 98.1567 106.009C97.9049 105.981 97.6486 105.967 97.3892 105.967C93.4161 105.967 90.1836 109.199 90.1836 113.172C90.1836 117.146 93.4161 120.378 97.3892 120.378C97.6448 120.378 97.8998 120.363 98.1705 120.331C99.0273 120.229 99.6405 119.452 99.5386 118.596Z" fill="black"/>
<path d="M125.919 94.4851C125.733 92.0163 124.721 90.0044 122.905 88.4969C118.501 84.8388 110.958 85.4819 106.851 86.1907C98.8169 87.5788 92.9844 94.5013 92.9844 102.652V107.995C92.9844 108.858 93.6838 109.558 94.5469 109.558C95.41 109.558 96.1094 108.858 96.1094 107.995V102.652C96.1094 96.0263 100.851 90.3988 107.383 89.2707C113.374 88.2363 118.433 88.8451 120.908 90.9013C122.172 91.9507 122.799 93.3632 122.824 95.2195C122.842 96.5113 123.925 97.5626 125.238 97.5626C126.611 97.5626 127.464 99.9069 127.464 103.681V107.807C127.464 108.67 128.164 109.369 129.027 109.369C129.89 109.369 130.589 108.67 130.589 107.807V103.681C130.59 96.4963 127.915 94.7713 125.919 94.4851Z" fill="black"/>
<path d="M110.956 138.854L105.921 133.485C105.592 133.134 105.125 132.951 104.643 132.997C104.165 133.039 103.733 133.299 103.471 133.702C103.166 134.17 102.742 134.548 102.244 134.794L99.5199 136.137C99.0762 136.356 98.7618 136.772 98.6737 137.259C98.5849 137.745 98.7331 138.246 99.0718 138.607L104.756 144.667C105.276 145.223 105.982 145.542 106.743 145.566C106.774 145.567 106.806 145.568 106.837 145.568C107.563 145.568 108.252 145.295 108.784 144.797L110.827 142.881C111.972 141.807 112.031 140 110.956 138.854ZM106.847 142.329L102.793 138.007L103.627 137.596C104.044 137.39 104.434 137.14 104.792 136.849L108.488 140.79L106.847 142.329Z" fill="black"/>
<path d="M124.86 137.259C124.771 136.772 124.457 136.356 124.013 136.136L121.29 134.793C120.792 134.548 120.367 134.17 120.062 133.701C119.8 133.298 119.368 133.039 118.89 132.997C118.416 132.951 117.941 133.135 117.613 133.485L112.577 138.854C111.503 140 111.562 141.806 112.707 142.881L114.751 144.797C115.283 145.296 115.971 145.568 116.697 145.568C116.729 145.568 116.76 145.567 116.791 145.566C117.552 145.542 118.258 145.222 118.778 144.667L124.462 138.606C124.8 138.246 124.948 137.745 124.86 137.259ZM116.687 142.329L115.045 140.79L118.742 136.848C119.1 137.139 119.49 137.39 119.907 137.595L120.74 138.006L116.687 142.329Z" fill="black"/>
<path d="M105.548 128.592C104.685 128.592 103.986 129.291 103.986 130.154V132.011C103.986 132.611 103.811 133.197 103.48 133.706C103.009 134.429 103.214 135.396 103.937 135.867C104.2 136.038 104.496 136.12 104.788 136.12C105.298 136.12 105.799 135.87 106.099 135.409C106.761 134.392 107.11 133.217 107.11 132.011V130.154C107.111 129.291 106.411 128.592 105.548 128.592Z" fill="black"/>
<path d="M120.065 133.706C119.734 133.197 119.559 132.611 119.559 132.011V130.154C119.559 129.291 118.859 128.592 117.996 128.592C117.133 128.592 116.434 129.291 116.434 130.154V132.011C116.434 133.218 116.784 134.393 117.445 135.409C117.744 135.869 118.245 136.12 118.756 136.12C119.049 136.12 119.344 136.038 119.607 135.867C120.33 135.396 120.535 134.429 120.065 133.706Z" fill="black"/>
<path d="M113.11 138.992H110.414C109.551 138.992 108.852 139.692 108.852 140.555C108.852 141.418 109.551 142.117 110.414 142.117H113.11C113.973 142.117 114.672 141.418 114.672 140.555C114.672 139.692 113.973 138.992 113.11 138.992Z" fill="black"/>
<path d="M74.6852 88.8906H10.8358C5.36266 88.8906 0.910156 93.3438 0.910156 98.8169V126.694C0.910156 132.167 5.36266 136.619 10.8358 136.619H60.2039C60.5121 136.619 60.7921 136.801 60.9183 137.083L62.9864 141.715C63.5202 142.909 64.6646 143.653 65.9733 143.653C67.2821 143.653 68.4271 142.91 68.9614 141.714L71.0289 137.083C71.1546 136.801 71.4346 136.619 71.7439 136.619H74.6858C80.1589 136.619 84.6114 132.167 84.6114 126.694V98.8169C84.6108 93.3438 80.1583 88.8906 74.6852 88.8906ZM81.4858 126.694C81.4858 130.444 78.4352 133.494 74.6852 133.494H71.7433C70.2033 133.494 68.8027 134.403 68.1746 135.809L66.1077 140.441C66.0933 140.473 66.0683 140.528 65.9733 140.528C65.8783 140.528 65.8552 140.476 65.8396 140.441L63.7714 135.809C63.1433 134.403 61.7427 133.494 60.2033 133.494H10.8358C7.08578 133.494 4.03516 130.444 4.03516 126.694V98.8169C4.03516 95.0669 7.08578 92.0156 10.8358 92.0156H74.6852C78.4352 92.0156 81.4858 95.0669 81.4858 98.8169V126.694Z" fill="black"/>
<path d="M49.2352 123.357H13.3477C12.4845 123.357 11.7852 124.057 11.7852 124.92C11.7852 125.783 12.4845 126.482 13.3477 126.482H49.2352C50.0983 126.482 50.7977 125.783 50.7977 124.92C50.7977 124.057 50.0983 123.357 49.2352 123.357Z" fill="black"/>
<path d="M49.2352 117.041H13.3477C12.4845 117.041 11.7852 117.74 11.7852 118.604C11.7852 119.467 12.4845 120.166 13.3477 120.166H49.2352C50.0983 120.166 50.7977 119.467 50.7977 118.604C50.7977 117.74 50.0983 117.041 49.2352 117.041Z" fill="black"/>
<path d="M49.2352 110.725H13.3477C12.4845 110.725 11.7852 111.424 11.7852 112.287C11.7852 113.15 12.4845 113.85 13.3477 113.85H49.2352C50.0983 113.85 50.7977 113.15 50.7977 112.287C50.7977 111.424 50.0983 110.725 49.2352 110.725Z" fill="black"/>
<path d="M35.117 100.309H13.3477C12.4845 100.309 11.7852 101.008 11.7852 101.871C11.7852 102.734 12.4845 103.434 13.3477 103.434H35.117C35.9802 103.434 36.6795 102.734 36.6795 101.871C36.6795 101.008 35.9802 100.309 35.117 100.309Z" fill="black"/>
<path d="M73.2213 125.039L66.7132 100.865C66.5294 100.183 65.9113 99.709 65.2044 99.709C64.4982 99.709 63.8794 100.183 63.6957 100.865L57.1869 125.039C56.9626 125.873 57.4563 126.73 58.2894 126.954C59.1226 127.179 59.9801 126.685 60.2044 125.851L65.2044 107.281L70.2038 125.851C70.3919 126.548 71.0226 127.008 71.7113 127.008C71.8463 127.008 71.9832 126.991 72.1188 126.954C72.9519 126.73 73.4457 125.873 73.2213 125.039Z" fill="black"/>
<path d="M68.9264 114.592H61.4883C60.6252 114.592 59.9258 115.291 59.9258 116.154C59.9258 117.017 60.6252 117.717 61.4883 117.717H68.9264C69.7895 117.717 70.4889 117.017 70.4889 116.154C70.4889 115.291 69.7895 114.592 68.9264 114.592Z" fill="black"/>
<defs>
<linearGradient id="paint0_linear_1136_7315" x1="42.0078" y1="0" x2="50.5663" y2="0.513467" gradientUnits="userSpaceOnUse">
<stop stop-color="#F15613"/>
<stop offset="1" stop-color="#F27B13"/>
</linearGradient>
<linearGradient id="paint1_linear_1136_7315" x1="1.55859" y1="52" x2="51.6476" y2="56.906" gradientUnits="userSpaceOnUse">
<stop stop-color="#F15613"/>
<stop offset="1" stop-color="#F27B13"/>
</linearGradient>
<linearGradient id="paint2_linear_1136_7315" x1="14.3008" y1="56.75" x2="24.7978" y2="57.3987" gradientUnits="userSpaceOnUse">
<stop stop-color="#F15613"/>
<stop offset="1" stop-color="#F27B13"/>
</linearGradient>
<linearGradient id="paint3_linear_1136_7315" x1="27.457" y1="56.7422" x2="37.9543" y2="57.391" gradientUnits="userSpaceOnUse">
<stop stop-color="#F15613"/>
<stop offset="1" stop-color="#F27B13"/>
</linearGradient>
<linearGradient id="paint4_linear_1136_7315" x1="87.4766" y1="129.816" x2="137.567" y2="134.723" gradientUnits="userSpaceOnUse">
<stop stop-color="#F15613"/>
<stop offset="1" stop-color="#F27B13"/>
</linearGradient>
<linearGradient id="paint5_linear_1136_7315" x1="100.215" y1="134.559" x2="110.712" y2="135.207" gradientUnits="userSpaceOnUse">
<stop stop-color="#F15613"/>
<stop offset="1" stop-color="#F27B13"/>
</linearGradient>
<linearGradient id="paint6_linear_1136_7315" x1="113.375" y1="134.559" x2="123.872" y2="135.207" gradientUnits="userSpaceOnUse">
<stop stop-color="#F15613"/>
<stop offset="1" stop-color="#F27B13"/>
</linearGradient>
</defs>
</svg>
