<svg width="279" height="197" viewBox="0 0 279 197" fill="none" xmlns="http://www.w3.org/2000/svg">
<path d="M2.91797 18.6367V179.637H117.98C119.203 179.637 120.375 180.122 121.239 180.986C122.103 181.851 122.589 183.023 122.589 184.245V188.999C122.589 190.152 123.047 191.257 123.862 192.072C124.677 192.887 125.782 193.345 126.935 193.345H151.785C152.937 193.345 154.043 192.887 154.858 192.072C155.673 191.257 156.13 190.152 156.13 188.999V184.245C156.13 183.023 156.616 181.851 157.48 180.986C158.344 180.122 159.517 179.637 160.739 179.637H275.801V18.6367H2.91797Z" fill="url(#paint0_linear_1274_136)"/>
<path d="M260.08 2.94531V163.916H157.239C152.499 163.924 147.956 165.81 144.605 169.161C141.253 172.513 139.367 177.056 139.359 181.795V20.7953C139.367 16.0585 141.254 11.5184 144.606 8.17169C147.959 4.825 152.502 2.94531 157.239 2.94531H260.08Z" fill="#D4D4D4"/>
<path d="M139.358 20.7953V181.795C139.35 177.056 137.464 172.513 134.112 169.161C130.761 165.81 126.218 163.924 121.478 163.916H18.6367V2.94531H121.478C126.215 2.94531 130.758 4.825 134.111 8.17169C137.463 11.5184 139.35 16.0585 139.358 20.7953Z" fill="#A3A3A3"/>
<path d="M114.83 23.3633H43.1672C40.8959 23.3633 39.0547 25.2045 39.0547 27.4758V139.388C39.0547 141.66 40.8959 143.501 43.1672 143.501H114.83C117.101 143.501 118.942 141.66 118.942 139.388V27.4758C118.942 25.2045 117.101 23.3633 114.83 23.3633Z" fill="#D4D4D4"/>
<path d="M230.943 23.3633H159.28C157.009 23.3633 155.168 25.2045 155.168 27.4758V139.388C155.168 141.66 157.009 143.501 159.28 143.501H230.943C233.214 143.501 235.055 141.66 235.055 139.388V27.4758C235.055 25.2045 233.214 23.3633 230.943 23.3633Z" fill="#E5E5E5"/>
<path d="M275.8 15.7208H262.996V2.91667C262.996 2.14312 262.689 1.40125 262.142 0.85427C261.595 0.307289 260.853 0 260.079 0H157.238C153.629 0.00917786 150.084 0.95465 146.95 2.74398C143.816 4.5333 141.201 7.10524 139.358 10.2083C137.516 7.10524 134.9 4.5333 131.766 2.74398C128.632 0.95465 125.088 0.00917786 121.479 0H18.6083C17.8348 0 17.0929 0.307289 16.5459 0.85427C15.999 1.40125 15.6917 2.14312 15.6917 2.91667V15.7208H2.91667C2.14312 15.7208 1.40125 16.0281 0.854272 16.5751C0.307291 17.1221 0 17.8639 0 18.6375V179.608C0 180.382 0.307291 181.124 0.854272 181.671C1.40125 182.218 2.14312 182.525 2.91667 182.525H117.979C118.204 182.525 118.426 182.57 118.633 182.657C118.841 182.743 119.028 182.871 119.186 183.031C119.343 183.191 119.467 183.381 119.551 183.589C119.634 183.798 119.675 184.021 119.671 184.246V189C119.671 190.929 120.435 192.779 121.796 194.146C123.157 195.512 125.005 196.284 126.933 196.292H151.783C153.712 196.284 155.559 195.512 156.92 194.146C158.282 192.779 159.046 190.929 159.046 189V184.246C159.042 184.021 159.083 183.798 159.166 183.589C159.249 183.381 159.373 183.191 159.531 183.031C159.688 182.871 159.876 182.743 160.083 182.657C160.29 182.57 160.513 182.525 160.738 182.525H275.8C276.574 182.525 277.315 182.218 277.862 181.671C278.409 181.124 278.717 180.382 278.717 179.608V18.6375C278.717 17.8639 278.409 17.1221 277.862 16.5751C277.315 16.0281 276.574 15.7208 275.8 15.7208ZM157.238 5.83333H257.163V161H157.238C154.447 161 151.685 161.56 149.115 162.648C146.544 163.735 144.219 165.327 142.275 167.329V20.7958C142.283 16.8299 143.862 13.0286 146.666 10.2243C149.47 7.41992 153.272 5.84104 157.238 5.83333ZM21.525 5.83333H121.479C124.558 5.83927 127.56 6.79088 130.079 8.55936C132.599 10.3278 134.515 12.8278 135.567 15.7208C136.85 19.2792 136.442 8.575 136.442 167.387C134.498 165.385 132.172 163.793 129.602 162.706C127.032 161.619 124.27 161.059 121.479 161.058H21.525V5.83333ZM272.883 176.692H160.738C159.747 176.692 158.766 176.887 157.851 177.267C156.936 177.647 156.105 178.204 155.406 178.906C154.707 179.608 154.153 180.441 153.777 181.357C153.4 182.274 153.209 183.255 153.213 184.246V189C153.213 189.382 153.063 189.748 152.796 190.021C152.529 190.294 152.165 190.451 151.783 190.458H126.933C126.554 190.444 126.195 190.284 125.929 190.013C125.663 189.742 125.511 189.38 125.504 189V184.246C125.504 182.247 124.712 180.33 123.302 178.915C121.892 177.499 119.978 176.699 117.979 176.692H5.83333V21.5542H15.6917V163.917C15.6917 164.69 15.999 165.432 16.5459 165.979C17.0929 166.526 17.8348 166.833 18.6083 166.833H121.479C123.443 166.83 125.388 167.213 127.203 167.962C129.018 168.71 130.668 169.81 132.057 171.197C133.447 172.584 134.55 174.231 135.302 176.045C136.054 177.859 136.442 179.803 136.442 181.767C136.442 182.54 136.749 183.282 137.296 183.829C137.843 184.376 138.585 184.683 139.358 184.683C140.132 184.683 140.874 184.376 141.421 183.829C141.968 183.282 142.275 182.54 142.275 181.767C142.283 177.803 143.863 174.005 146.668 171.205C149.473 168.406 153.274 166.833 157.238 166.833H260.079C260.853 166.833 261.595 166.526 262.142 165.979C262.689 165.432 262.996 164.69 262.996 163.917V21.5542H272.883V176.692Z" fill="#171717"/>
<path d="M41.5612 135.771H45.7612C46.5347 135.771 47.2766 135.464 47.8236 134.917C48.3706 134.37 48.6779 133.628 48.6779 132.854C48.6779 132.081 48.3706 131.339 47.8236 130.792C47.2766 130.245 46.5347 129.938 45.7612 129.938H41.5612C40.7876 129.938 40.0458 130.245 39.4988 130.792C38.9518 131.339 38.6445 132.081 38.6445 132.854C38.6445 133.628 38.9518 134.37 39.4988 134.917C40.0458 135.464 40.7876 135.771 41.5612 135.771Z" fill="#171717"/>
<path d="M65.1003 135.771H69.3586C70.1321 135.771 70.874 135.464 71.421 134.917C71.968 134.37 72.2753 133.628 72.2753 132.854C72.2753 132.081 71.968 131.339 71.421 130.792C70.874 130.245 70.1321 129.938 69.3586 129.938H65.1003C64.3267 129.938 63.5848 130.245 63.0379 130.792C62.4909 131.339 62.1836 132.081 62.1836 132.854C62.1836 133.628 62.4909 134.37 63.0379 134.917C63.5848 135.464 64.3267 135.771 65.1003 135.771Z" fill="#171717"/>
<path d="M112.233 135.771H116.433C117.207 135.771 117.948 135.464 118.495 134.917C119.042 134.37 119.35 133.628 119.35 132.854C119.35 132.081 119.042 131.339 118.495 130.792C117.948 130.245 117.207 129.938 116.433 129.938H112.233C111.46 129.938 110.718 130.245 110.171 130.792C109.624 131.339 109.316 132.081 109.316 132.854C109.316 133.628 109.624 134.37 110.171 134.917C110.718 135.464 111.46 135.771 112.233 135.771Z" fill="#171717"/>
<path d="M41.5612 116.142H45.7612C46.5347 116.142 47.2766 115.835 47.8236 115.288C48.3706 114.741 48.6779 113.999 48.6779 113.225C48.6779 112.452 48.3706 111.71 47.8236 111.163C47.2766 110.616 46.5347 110.309 45.7612 110.309H41.5612C40.7876 110.309 40.0458 110.616 39.4988 111.163C38.9518 111.71 38.6445 112.452 38.6445 113.225C38.6445 113.999 38.9518 114.741 39.4988 115.288C40.0458 115.835 40.7876 116.142 41.5612 116.142Z" fill="#171717"/>
<path d="M88.6667 116.142H92.8667C93.6402 116.142 94.3821 115.835 94.9291 115.288C95.476 114.741 95.7833 113.999 95.7833 113.225C95.7833 112.452 95.476 111.71 94.9291 111.163C94.3821 110.616 93.6402 110.309 92.8667 110.309H88.6667C87.8931 110.309 87.1513 110.616 86.6043 111.163C86.0573 111.71 85.75 112.452 85.75 113.225C85.75 113.999 86.0573 114.741 86.6043 115.288C87.1513 115.835 87.8931 116.142 88.6667 116.142Z" fill="#171717"/>
<path d="M112.233 96.513H116.433C117.207 96.513 117.948 96.2057 118.495 95.6588C119.042 95.1118 119.35 94.3699 119.35 93.5964C119.35 92.8228 119.042 92.0809 118.495 91.534C117.948 90.987 117.207 90.6797 116.433 90.6797H112.233C111.46 90.6797 110.718 90.987 110.171 91.534C109.624 92.0809 109.316 92.8228 109.316 93.5964C109.316 94.3699 109.624 95.1118 110.171 95.6588C110.718 96.2057 111.46 96.513 112.233 96.513Z" fill="#171717"/>
<path d="M88.6667 76.8841H92.8667C93.6402 76.8841 94.3821 76.5768 94.9291 76.0298C95.476 75.4829 95.7833 74.741 95.7833 73.9674C95.7833 73.1939 95.476 72.452 94.9291 71.9051C94.3821 71.3581 93.6402 71.0508 92.8667 71.0508H88.6667C87.8931 71.0508 87.1513 71.3581 86.6043 71.9051C86.0573 72.452 85.75 73.1939 85.75 73.9674C85.75 74.741 86.0573 75.4829 86.6043 76.0298C87.1513 76.5768 87.8931 76.8841 88.6667 76.8841Z" fill="#171717"/>
<path d="M112.233 76.8841H116.433C117.207 76.8841 117.948 76.5768 118.495 76.0298C119.042 75.4829 119.35 74.741 119.35 73.9674C119.35 73.1939 119.042 72.452 118.495 71.9051C117.948 71.3581 117.207 71.0508 116.433 71.0508H112.233C111.46 71.0508 110.718 71.3581 110.171 71.9051C109.624 72.452 109.316 73.1939 109.316 73.9674C109.316 74.741 109.624 75.4829 110.171 76.0298C110.718 76.5768 111.46 76.8841 112.233 76.8841Z" fill="#171717"/>
<path d="M41.5612 57.3138H45.7612C46.5347 57.3138 47.2766 57.0065 47.8236 56.4595C48.3706 55.9126 48.6779 55.1707 48.6779 54.3971C48.6779 53.6236 48.3706 52.8817 47.8236 52.3347C47.2766 51.7878 46.5347 51.4805 45.7612 51.4805H41.5612C40.7876 51.4805 40.0458 51.7878 39.4988 52.3347C38.9518 52.8817 38.6445 53.6236 38.6445 54.3971C38.6445 55.1707 38.9518 55.9126 39.4988 56.4595C40.0458 57.0065 40.7876 57.3138 41.5612 57.3138Z" fill="#171717"/>
<path d="M65.1003 57.3138H69.3586C70.1321 57.3138 70.874 57.0065 71.421 56.4595C71.968 55.9126 72.2753 55.1707 72.2753 54.3971C72.2753 53.6236 71.968 52.8817 71.421 52.3347C70.874 51.7878 70.1321 51.4805 69.3586 51.4805H65.1003C64.3267 51.4805 63.5848 51.7878 63.0379 52.3347C62.4909 52.8817 62.1836 53.6236 62.1836 54.3971C62.1836 55.1707 62.4909 55.9126 63.0379 56.4595C63.5848 57.0065 64.3267 57.3138 65.1003 57.3138Z" fill="#171717"/>
<path d="M41.5612 37.6536H45.7612C46.5347 37.6536 47.2766 37.3464 47.8236 36.7994C48.3706 36.2524 48.6779 35.5105 48.6779 34.737C48.6779 33.9634 48.3706 33.2216 47.8236 32.6746C47.2766 32.1276 46.5347 31.8203 45.7612 31.8203H41.5612C40.7876 31.8203 40.0458 32.1276 39.4988 32.6746C38.9518 33.2216 38.6445 33.9634 38.6445 34.737C38.6445 35.5105 38.9518 36.2524 39.4988 36.7994C40.0458 37.3464 40.7876 37.6536 41.5612 37.6536Z" fill="#171717"/>
<path d="M88.6667 37.6536H92.8667C93.6402 37.6536 94.3821 37.3464 94.9291 36.7994C95.476 36.2524 95.7833 35.5105 95.7833 34.737C95.7833 33.9634 95.476 33.2216 94.9291 32.6746C94.3821 32.1276 93.6402 31.8203 92.8667 31.8203H88.6667C87.8931 31.8203 87.1513 32.1276 86.6043 32.6746C86.0573 33.2216 85.75 33.9634 85.75 34.737C85.75 35.5105 86.0573 36.2524 86.6043 36.7994C87.1513 37.3464 87.8931 37.6536 88.6667 37.6536Z" fill="#171717"/>
<path d="M112.233 37.6536H116.433C117.207 37.6536 117.948 37.3464 118.495 36.7994C119.042 36.2524 119.35 35.5105 119.35 34.737C119.35 33.9634 119.042 33.2216 118.495 32.6746C117.948 32.1276 117.207 31.8203 116.433 31.8203H112.233C111.46 31.8203 110.718 32.1276 110.171 32.6746C109.624 33.2216 109.316 33.9634 109.316 34.737C109.316 35.5105 109.624 36.2524 110.171 36.7994C110.718 37.3464 111.46 37.6536 112.233 37.6536Z" fill="#171717"/>
<path d="M162.253 135.771H166.482C167.255 135.771 167.997 135.464 168.544 134.917C169.091 134.37 169.398 133.628 169.398 132.854C169.398 132.081 169.091 131.339 168.544 130.792C167.997 130.245 167.255 129.938 166.482 129.938H162.253C161.479 129.938 160.737 130.245 160.19 130.792C159.643 131.339 159.336 132.081 159.336 132.854C159.336 133.628 159.643 134.37 160.19 134.917C160.737 135.464 161.479 135.771 162.253 135.771Z" fill="#171717"/>
<path d="M232.956 135.771H237.156C237.929 135.771 238.671 135.464 239.218 134.917C239.765 134.37 240.072 133.628 240.072 132.854C240.072 132.081 239.765 131.339 239.218 130.792C238.671 130.245 237.929 129.938 237.156 129.938H232.956C232.182 129.938 231.44 130.245 230.893 130.792C230.346 131.339 230.039 132.081 230.039 132.854C230.039 133.628 230.346 134.37 230.893 134.917C231.44 135.464 232.182 135.771 232.956 135.771Z" fill="#171717"/>
<path d="M209.358 135.771H213.616C214.39 135.771 215.132 135.464 215.679 134.917C216.226 134.37 216.533 133.628 216.533 132.854C216.533 132.081 216.226 131.339 215.679 130.792C215.132 130.245 214.39 129.938 213.616 129.938H209.358C208.585 129.938 207.843 130.245 207.296 130.792C206.749 131.339 206.441 132.081 206.441 132.854C206.441 133.628 206.749 134.37 207.296 134.917C207.843 135.464 208.585 135.771 209.358 135.771Z" fill="#171717"/>
<path d="M232.956 116.142H237.156C237.929 116.142 238.671 115.835 239.218 115.288C239.765 114.741 240.072 113.999 240.072 113.225C240.072 112.452 239.765 111.71 239.218 111.163C238.671 110.616 237.929 110.309 237.156 110.309H232.956C232.182 110.309 231.44 110.616 230.893 111.163C230.346 111.71 230.039 112.452 230.039 113.225C230.039 113.999 230.346 114.741 230.893 115.288C231.44 115.835 232.182 116.142 232.956 116.142Z" fill="#171717"/>
<path d="M162.253 96.513H166.482C167.255 96.513 167.997 96.2057 168.544 95.6588C169.091 95.1118 169.398 94.3699 169.398 93.5964C169.398 92.8228 169.091 92.0809 168.544 91.534C167.997 90.987 167.255 90.6797 166.482 90.6797H162.253C161.479 90.6797 160.737 90.987 160.19 91.534C159.643 92.0809 159.336 92.8228 159.336 93.5964C159.336 94.3699 159.643 95.1118 160.19 95.6588C160.737 96.2057 161.479 96.513 162.253 96.513Z" fill="#171717"/>
<path d="M209.358 96.513H213.616C214.39 96.513 215.132 96.2057 215.679 95.6588C216.226 95.1118 216.533 94.3699 216.533 93.5964C216.533 92.8228 216.226 92.0809 215.679 91.534C215.132 90.987 214.39 90.6797 213.616 90.6797H209.358C208.585 90.6797 207.843 90.987 207.296 91.534C206.749 92.0809 206.441 92.8228 206.441 93.5964C206.441 94.3699 206.749 95.1118 207.296 95.6588C207.843 96.2057 208.585 96.513 209.358 96.513Z" fill="#171717"/>
<path d="M162.253 76.8841H166.482C167.255 76.8841 167.997 76.5768 168.544 76.0298C169.091 75.4829 169.398 74.741 169.398 73.9674C169.398 73.1939 169.091 72.452 168.544 71.9051C167.997 71.3581 167.255 71.0508 166.482 71.0508H162.253C161.479 71.0508 160.737 71.3581 160.19 71.9051C159.643 72.452 159.336 73.1939 159.336 73.9674C159.336 74.741 159.643 75.4829 160.19 76.0298C160.737 76.5768 161.479 76.8841 162.253 76.8841Z" fill="#171717"/>
<path d="M185.819 76.8841H190.048C190.822 76.8841 191.564 76.5768 192.111 76.0298C192.658 75.4829 192.965 74.741 192.965 73.9674C192.965 73.1939 192.658 72.452 192.111 71.9051C191.564 71.3581 190.822 71.0508 190.048 71.0508H185.819C185.045 71.0508 184.304 71.3581 183.757 71.9051C183.21 72.452 182.902 73.1939 182.902 73.9674C182.902 74.741 183.21 75.4829 183.757 76.0298C184.304 76.5768 185.045 76.8841 185.819 76.8841Z" fill="#171717"/>
<path d="M232.956 76.8841H237.156C237.929 76.8841 238.671 76.5768 239.218 76.0298C239.765 75.4829 240.072 74.741 240.072 73.9674C240.072 73.1939 239.765 72.452 239.218 71.9051C238.671 71.3581 237.929 71.0508 237.156 71.0508H232.956C232.182 71.0508 231.44 71.3581 230.893 71.9051C230.346 72.452 230.039 73.1939 230.039 73.9674C230.039 74.741 230.346 75.4829 230.893 76.0298C231.44 76.5768 232.182 76.8841 232.956 76.8841Z" fill="#171717"/>
<path d="M232.956 57.3138H237.156C237.929 57.3138 238.671 57.0065 239.218 56.4595C239.765 55.9126 240.072 55.1707 240.072 54.3971C240.072 53.6236 239.765 52.8817 239.218 52.3347C238.671 51.7878 237.929 51.4805 237.156 51.4805H232.956C232.182 51.4805 231.44 51.7878 230.893 52.3347C230.346 52.8817 230.039 53.6236 230.039 54.3971C230.039 55.1707 230.346 55.9126 230.893 56.4595C231.44 57.0065 232.182 57.3138 232.956 57.3138Z" fill="#171717"/>
<path d="M162.253 37.6536H166.482C167.255 37.6536 167.997 37.3464 168.544 36.7994C169.091 36.2524 169.398 35.5105 169.398 34.737C169.398 33.9634 169.091 33.2216 168.544 32.6746C167.997 32.1276 167.255 31.8203 166.482 31.8203H162.253C161.479 31.8203 160.737 32.1276 160.19 32.6746C159.643 33.2216 159.336 33.9634 159.336 34.737C159.336 35.5105 159.643 36.2524 160.19 36.7994C160.737 37.3464 161.479 37.6536 162.253 37.6536Z" fill="#171717"/>
<path d="M232.956 37.6536H237.156C237.929 37.6536 238.671 37.3464 239.218 36.7994C239.765 36.2524 240.072 35.5105 240.072 34.737C240.072 33.9634 239.765 33.2216 239.218 32.6746C238.671 32.1276 237.929 31.8203 237.156 31.8203H232.956C232.182 31.8203 231.44 32.1276 230.893 32.6746C230.346 33.2216 230.039 33.9634 230.039 34.737C230.039 35.5105 230.346 36.2524 230.893 36.7994C231.44 37.3464 232.182 37.6536 232.956 37.6536Z" fill="#171717"/>
<path d="M209.358 37.6536H213.616C214.39 37.6536 215.132 37.3464 215.679 36.7994C216.226 36.2524 216.533 35.5105 216.533 34.737C216.533 33.9634 216.226 33.2216 215.679 32.6746C215.132 32.1276 214.39 31.8203 213.616 31.8203H209.358C208.585 31.8203 207.843 32.1276 207.296 32.6746C206.749 33.2216 206.441 33.9634 206.441 34.737C206.441 35.5105 206.749 36.2524 207.296 36.7994C207.843 37.3464 208.585 37.6536 209.358 37.6536Z" fill="#171717"/>
<defs>
<linearGradient id="paint0_linear_1274_136" x1="2.91797" y1="18.6367" x2="289.41" y2="44.9012" gradientUnits="userSpaceOnUse">
<stop stop-color="#F15613"/>
<stop offset="1" stop-color="#F27B13"/>
</linearGradient>
</defs>
</svg>
