<svg width="280" height="184" viewBox="0 0 280 184" fill="none" xmlns="http://www.w3.org/2000/svg">
<path d="M262.735 2.91797H17.268C9.34268 2.91797 2.91797 9.34268 2.91797 17.268V166.485C2.91797 174.41 9.34268 180.835 17.268 180.835H262.735C270.66 180.835 277.085 174.41 277.085 166.485V17.268C277.085 9.34268 270.66 2.91797 262.735 2.91797Z" fill="#404040"/>
<path d="M23.332 20.125H256.665V133.525H23.332V20.125Z" fill="#525252"/>
<path d="M2.91797 148.254V166.483C2.91797 170.289 4.42984 173.939 7.12099 176.63C9.81213 179.321 13.4621 180.833 17.268 180.833H262.735C266.54 180.833 270.19 179.321 272.882 176.63C275.573 173.939 277.085 170.289 277.085 166.483V148.254H2.91797Z" fill="#A3A3A3"/>
<path d="M23.332 148.254V164.062C23.332 167.056 24.5212 169.927 26.6381 172.044C28.7549 174.161 31.6259 175.35 34.6195 175.35H245.349C246.833 175.354 248.304 175.064 249.677 174.499C251.05 173.933 252.298 173.103 253.349 172.054C254.4 171.006 255.234 169.76 255.803 168.389C256.372 167.017 256.665 165.547 256.665 164.062V148.254H23.332Z" fill="#D4D4D4"/>
<path d="M56.3211 170.072C59.3656 170.072 61.8336 167.604 61.8336 164.559C61.8336 161.515 59.3656 159.047 56.3211 159.047C53.2766 159.047 50.8086 161.515 50.8086 164.559C50.8086 167.604 53.2766 170.072 56.3211 170.072Z" fill="#E5E5E5"/>
<path d="M138.978 124.047C162.19 124.047 181.008 105.23 181.008 82.0174C181.008 58.8054 162.19 39.9883 138.978 39.9883C115.766 39.9883 96.9492 58.8054 96.9492 82.0174C96.9492 105.23 115.766 124.047 138.978 124.047Z" fill="url(#paint0_linear_1274_170)"/>
<path d="M123.727 102.433V61.5992C123.726 61.2194 123.831 60.8469 124.028 60.5224C124.225 60.1979 124.508 59.9339 124.845 59.7593C125.182 59.5847 125.561 59.5061 125.94 59.5323C126.319 59.5584 126.683 59.6882 126.993 59.9075L155.402 80.3242C155.667 80.5162 155.882 80.7683 156.031 81.0598C156.18 81.3513 156.258 81.674 156.258 82.0013C156.258 82.3286 156.18 82.6512 156.031 82.9427C155.882 83.2342 155.667 83.4863 155.402 83.6783L126.993 104.095C126.685 104.313 126.324 104.443 125.947 104.47C125.571 104.497 125.194 104.421 124.858 104.25C124.522 104.079 124.239 103.819 124.039 103.499C123.84 103.179 123.732 102.81 123.727 102.433Z" fill="#F5F5F5"/>
<path d="M262.733 0H17.2375C12.6632 0.00772695 8.2788 1.8303 5.04697 5.06759C1.81515 8.30488 -6.52613e-06 12.6923 0 17.2667L0 166.512C0.00771192 171.082 1.82628 175.462 5.05727 178.693C8.28825 181.924 12.6682 183.742 17.2375 183.75H262.733C267.308 183.75 271.695 181.935 274.932 178.703C278.17 175.471 279.992 171.087 280 166.512V17.2667C279.992 12.6896 278.171 8.30227 274.934 5.06581C271.698 1.82935 267.31 0.00771196 262.733 0ZM17.2375 5.83333H262.733C265.763 5.84103 268.667 7.04809 270.809 9.19059C272.952 11.3331 274.159 14.2367 274.167 17.2667V145.367H5.83333V17.2667C5.83332 14.2394 7.0339 11.3357 9.17176 9.19237C11.3096 7.04904 14.2102 5.84106 17.2375 5.83333ZM274.167 166.512C274.159 169.54 272.951 172.44 270.808 174.578C268.664 176.716 265.761 177.917 262.733 177.917H17.2375C14.2153 177.909 11.3191 176.705 9.18204 174.568C7.04501 172.431 5.84103 169.535 5.83333 166.512V151.2H274.167V166.512Z" fill="black"/>
<path d="M56.3222 172.96C58.0336 172.958 59.7033 172.431 61.1062 171.451C62.509 170.47 63.5776 169.083 64.168 167.477H155.168V169.664C155.168 170.438 155.475 171.18 156.022 171.727C156.569 172.274 157.311 172.581 158.085 172.581C158.858 172.581 159.6 172.274 160.147 171.727C160.694 171.18 161.001 170.438 161.001 169.664V167.477H223.651C224.425 167.477 225.167 167.169 225.714 166.623C226.261 166.076 226.568 165.334 226.568 164.56C226.568 163.787 226.261 163.045 225.714 162.498C225.167 161.951 224.425 161.643 223.651 161.643H161.03V159.456C161.03 158.682 160.723 157.941 160.176 157.394C159.629 156.847 158.887 156.539 158.114 156.539C157.34 156.539 156.598 156.847 156.051 157.394C155.504 157.941 155.197 158.682 155.197 159.456V161.643H64.168C63.6355 160.205 62.7194 158.94 61.5192 157.986C60.3189 157.031 58.8802 156.423 57.359 156.228C55.8379 156.033 54.2924 156.258 52.8901 156.879C51.4878 157.5 50.2822 158.493 49.4041 159.75C48.5259 161.007 48.0087 162.481 47.9086 164.011C47.8084 165.542 48.1291 167.07 48.8358 168.431C49.5426 169.792 50.6085 170.934 51.9179 171.732C53.2273 172.531 54.7303 172.955 56.2638 172.96H56.3222ZM56.3222 161.964C56.6842 161.926 57.0503 161.964 57.3966 162.076C57.743 162.188 58.0619 162.372 58.3326 162.615C58.6033 162.859 58.8198 163.156 58.968 163.489C59.1162 163.821 59.1928 164.181 59.1928 164.546C59.1928 164.91 59.1162 165.27 58.968 165.602C58.8198 165.935 58.6033 166.232 58.3326 166.476C58.0619 166.719 57.743 166.903 57.3966 167.015C57.0503 167.127 56.6842 167.165 56.3222 167.127C55.6849 167.059 55.0952 166.758 54.6667 166.281C54.2382 165.805 54.0011 165.186 54.0011 164.546C54.0011 163.905 54.2382 163.286 54.6667 162.81C55.0952 162.333 55.6849 162.032 56.3222 161.964Z" fill="black"/>
<path d="M37.4792 167.474H39.6667C40.4402 167.474 41.1821 167.167 41.7291 166.62C42.276 166.073 42.5833 165.331 42.5833 164.557C42.5833 163.784 42.276 163.042 41.7291 162.495C41.1821 161.948 40.4402 161.641 39.6667 161.641H37.4792C36.7056 161.641 35.9638 161.948 35.4168 162.495C34.8698 163.042 34.5625 163.784 34.5625 164.557C34.5625 165.331 34.8698 166.073 35.4168 166.62C35.9638 167.167 36.7056 167.474 37.4792 167.474Z" fill="black"/>
<path d="M26.569 167.474H28.7565C29.5301 167.474 30.2719 167.167 30.8189 166.62C31.3659 166.073 31.6732 165.331 31.6732 164.557C31.6732 163.784 31.3659 163.042 30.8189 162.495C30.2719 161.948 29.5301 161.641 28.7565 161.641H26.569C25.7955 161.641 25.0536 161.948 24.5066 162.495C23.9596 163.042 23.6523 163.784 23.6523 164.557C23.6523 165.331 23.9596 166.073 24.5066 166.62C25.0536 167.167 25.7955 167.474 26.569 167.474Z" fill="black"/>
<path d="M15.6901 167.474H17.8776C18.6512 167.474 19.393 167.167 19.94 166.62C20.487 166.073 20.7943 165.331 20.7943 164.557C20.7943 163.784 20.487 163.042 19.94 162.495C19.393 161.948 18.6512 161.641 17.8776 161.641H15.6901C14.9166 161.641 14.1747 161.948 13.6277 162.495C13.0807 163.042 12.7734 163.784 12.7734 164.557C12.7734 165.331 13.0807 166.073 13.6277 166.62C14.1747 167.167 14.9166 167.474 15.6901 167.474Z" fill="black"/>
<path d="M262.12 167.474H264.307C265.081 167.474 265.823 167.167 266.37 166.62C266.917 166.073 267.224 165.331 267.224 164.557C267.224 163.784 266.917 163.042 266.37 162.495C265.823 161.948 265.081 161.641 264.307 161.641H262.12C261.346 161.641 260.604 161.948 260.057 162.495C259.51 163.042 259.203 163.784 259.203 164.557C259.203 165.331 259.51 166.073 260.057 166.62C260.604 167.167 261.346 167.474 262.12 167.474Z" fill="black"/>
<path d="M251.214 167.474H253.401C254.175 167.474 254.916 167.167 255.463 166.62C256.01 166.073 256.318 165.331 256.318 164.557C256.318 163.784 256.01 163.042 255.463 162.495C254.916 161.948 254.175 161.641 253.401 161.641H251.214C250.44 161.641 249.698 161.948 249.151 162.495C248.604 163.042 248.297 163.784 248.297 164.557C248.297 165.331 248.604 166.073 249.151 166.62C249.698 167.167 250.44 167.474 251.214 167.474Z" fill="black"/>
<path d="M240.303 167.474H242.491C243.264 167.474 244.006 167.167 244.553 166.62C245.1 166.073 245.408 165.331 245.408 164.557C245.408 163.784 245.1 163.042 244.553 162.495C244.006 161.948 243.264 161.641 242.491 161.641H240.303C239.53 161.641 238.788 161.948 238.241 162.495C237.694 163.042 237.387 163.784 237.387 164.557C237.387 165.331 237.694 166.073 238.241 166.62C238.788 167.167 239.53 167.474 240.303 167.474Z" fill="black"/>
<path d="M138.977 126.876C147.872 126.876 156.566 124.237 163.96 119.293C171.354 114.349 177.114 107.323 180.513 99.1032C183.911 90.8836 184.794 81.8405 183.051 73.1187C181.307 64.3969 177.015 56.3886 170.717 50.1075C164.42 43.8263 156.4 39.5549 147.674 37.8338C138.948 36.1128 129.907 37.0195 121.696 40.4393C113.485 43.859 106.474 49.638 101.549 57.0446C96.6247 64.4513 94.0083 73.1525 94.0314 82.0469C94.0776 93.9423 98.8316 105.336 107.254 113.736C115.676 122.136 127.082 126.861 138.977 126.876ZM138.977 42.8177C146.708 42.8178 154.265 45.1088 160.695 49.4014C167.124 53.694 172.137 59.7956 175.101 66.9357C178.065 74.0758 178.846 81.934 177.347 89.5179C175.847 97.1018 172.133 104.071 166.675 109.546C161.217 115.02 154.258 118.755 146.679 120.277C139.1 121.799 131.239 121.041 124.09 118.099C116.941 115.156 110.825 110.161 106.513 103.745C102.201 97.3281 99.8878 89.7776 99.8647 82.0469C99.8725 71.676 103.996 61.7321 111.329 54.3987C118.662 47.0654 128.606 42.9421 138.977 42.9344V42.8177Z" fill="black"/>
<path d="M128.713 106.46L157.092 86.0431C157.736 85.5847 158.261 84.9788 158.624 84.2761C158.986 83.5734 159.175 82.7942 159.175 82.0035C159.175 81.2129 158.986 80.4337 158.624 79.731C158.261 79.0283 157.736 78.4224 157.092 77.964L128.713 57.5473C127.965 57.0207 127.087 56.7087 126.175 56.645C125.262 56.5813 124.349 56.7683 123.536 57.1857C122.722 57.6032 122.037 58.2353 121.557 59.0136C121.076 59.7919 120.817 60.6868 120.809 61.6015V102.435C120.823 103.347 121.085 104.238 121.568 105.012C122.051 105.786 122.735 106.414 123.548 106.828C124.361 107.242 125.272 107.427 126.182 107.362C127.092 107.297 127.967 106.985 128.713 106.46ZM126.642 63.2931L152.717 82.0473L126.642 100.772V63.2931Z" fill="black"/>
<defs>
<linearGradient id="paint0_linear_1274_170" x1="96.9492" y1="39.9883" x2="185.636" y2="45.1936" gradientUnits="userSpaceOnUse">
<stop stop-color="#F15613"/>
<stop offset="1" stop-color="#F27B13"/>
</linearGradient>
</defs>
</svg>
